HIERARCHY
ROOT Hips
{
	OFFSET -8.665500 -1.496397 44.816700
	CHANNELS 6 Xposition Yposition Zposition Zrotation Xrotation Yrotation
	JOINT Chest
	{
		OFFSET -0.698600 0.806100 5.350899
		CHANNELS 6 Xposition Yposition Zposition Zrotation Xrotation Yrotation
		JOINT Chest2
		{
			OFFSET 0.000000 0.000000 4.409100
			CHANNELS 6 Xposition Yposition Zposition Zrotation Xrotation Yrotation
			JOINT Neck
			{
				OFFSET 0.000000 0.000001 10.248299
				CHANNELS 6 Xposition Yposition Zposition Zrotation Xrotation Yrotation
				JOINT Head
				{
					OFFSET 0.000000 0.000000 2.173897
					CHANNELS 6 Xposition Yposition Zposition Zrotation Xrotation Yrotation
					End Site
					{
						OFFSET 0.000000 0.000001 9.966400
					}
				}
			}
			JOINT LeftCollar
			{
				OFFSET 2.100600 -0.520900 6.016098
				CHANNELS 6 Xposition Yposition Zposition Zrotation Xrotation Yrotation
				JOINT LeftShoulder
				{
					OFFSET 5.536700 0.000000 0.000000
					CHANNELS 6 Xposition Yposition Zposition Zrotation Xrotation Yrotation
					JOINT LeftElbow
					{
						OFFSET 0.000000 -0.000001 -12.362099
						CHANNELS 6 Xposition Yposition Zposition Zrotation Xrotation Yrotation
						JOINT LeftWrist
						{
							OFFSET 0.000000 -0.000001 -10.273201
							CHANNELS 6 Xposition Yposition Zposition Zrotation Xrotation Yrotation
							End Site
							{
								OFFSET 0.000000 -0.000000 -2.173901
							}
						}
					}
				}
			}
			JOINT RightCollar
			{
				OFFSET -2.899500 -1.655900 6.981701
				CHANNELS 6 Xposition Yposition Zposition Zrotation Xrotation Yrotation
				JOINT RightShoulder
				{
					OFFSET -4.387501 0.000000 0.000000
					CHANNELS 6 Xposition Yposition Zposition Zrotation Xrotation Yrotation
					JOINT RightElbow
					{
						OFFSET 0.000000 -0.000001 -10.858101
						CHANNELS 6 Xposition Yposition Zposition Zrotation Xrotation Yrotation
						JOINT RightWrist
						{
							OFFSET 0.000000 -0.000001 -12.079601
							CHANNELS 6 Xposition Yposition Zposition Zrotation Xrotation Yrotation
							End Site
							{
								OFFSET 0.000000 0.000000 -2.173901
							}
						}
					}
				}
			}
		}
	}
	JOINT LeftHip
	{
		OFFSET 2.190800 0.073900 -2.522499
		CHANNELS 6 Xposition Yposition Zposition Zrotation Xrotation Yrotation
		JOINT LeftKnee
		{
			OFFSET 0.000000 -0.000002 -20.305000
			CHANNELS 6 Xposition Yposition Zposition Zrotation Xrotation Yrotation
			JOINT LeftAnkle
			{
				OFFSET 0.000000 -0.000001 -16.771700
				CHANNELS 6 Xposition Yposition Zposition Zrotation Xrotation Yrotation
				End Site
				{
					OFFSET 0.000000 -8.738000 0.000001
				}
			}
		}
	}
	JOINT RightHip
	{
		OFFSET -2.029500 0.054300 -2.705200
		CHANNELS 6 Xposition Yposition Zposition Zrotation Xrotation Yrotation
		JOINT RightKnee
		{
			OFFSET 0.000000 -0.000002 -20.030399
			CHANNELS 6 Xposition Yposition Zposition Zrotation Xrotation Yrotation
			JOINT RightAnkle
			{
				OFFSET 0.000000 -0.000001 -17.032700
				CHANNELS 6 Xposition Yposition Zposition Zrotation Xrotation Yrotation
				End Site
				{
					OFFSET 0.000000 -8.823600 0.000001
				}
			}
		}
	}
}
MOTION
Frames: 6
Frame Time: 0.041667
13.352498 -20.022303 14.618494 2712.551818 2.116779 -16.693256 -0.698601 0.806100 5.350902 -10.406503 -8.368075 12.731386 0.000001 -0.000001 4.409102 7.861200 -3.228332 0.090825 0.000003 0.000002 10.248307 -16.721280 27.162351 14.004081 0.000001 0.000003 2.173895 6.445011 4.991061 -2.230769 2.100602 -0.520898 6.016104 3.164987 -3.750295 -1.116250 5.536692 0.000003 0.000012 322.695784 -13.387748 254.548637 -0.000003 0.000004 -12.362105 67.839536 -162.942618 53.554523 0.000001 0.000002 -10.273202 2802.409350 191.628320 -154.120364 -2.899501 -1.655897 6.981703 -7.601197 -8.072018 3.660300 -4.387502 -0.000000 -0.000000 -137.812782 -513.304453 644.559597 -0.000003 -0.000000 -10.858106 90.642402 -147.212283 43.254454 0.000004 0.000000 -12.079601 383.931026 -20.588868 -47.833078 2.190804 0.073899 -2.522499 -376.845797 -177.223916 -64.165447 -0.000002 -0.000005 -20.305016 -892.041721 1.732442 134.770192 0.000000 0.000006 -16.771708 1523.301683 24.867686 60.652585 -2.029502 0.054297 -2.705199 -507.391312 -13.041283 -94.686018 -0.000001 -0.000003 -20.030392 377.480540 186.421325 27.208812 -0.000003 0.000001 -17.032696 5.675893 59.543404 -158.356898
13.349097 -20.023401 14.611494 2712.604055 2.221289 -16.945218 -0.698599 0.806098 5.350901 -10.392893 -8.530374 12.978889 -0.000000 -0.000001 4.409102 7.851864 -3.236032 0.099726 -0.000001 0.000002 10.248299 -16.439745 26.752548 13.596419 -0.000001 0.000001 2.173887 6.229479 4.978761 -2.100249 2.100601 -0.520898 6.016097 3.221988 -3.594200 -1.310140 5.536694 -0.000003 -0.000005 323.159991 -14.030874 254.459299 -0.000002 0.000004 -12.362097 67.899020 -162.843772 53.492177 -0.000003 0.000001 -10.273205 2802.784409 191.889998 -154.054548 -2.899500 -1.655900 6.981697 -7.652728 -8.109524 3.651128 -4.387500 -0.000000 -0.000000 -138.496538 -512.524718 644.610250 0.000003 -0.000002 -10.858100 64.135647 -133.799718 25.840540 -0.000004 -0.000002 -12.079601 359.092223 -19.823801 -47.768451 2.190805 0.073898 -2.522496 -376.906149 -177.387826 -64.346092 -0.000004 -0.000002 -20.305010 -892.030028 1.714426 134.772582 -0.000000 0.000006 -16.771704 1523.337200 24.889298 60.672816 -2.029501 0.054297 -2.705202 -507.463494 -13.065017 -94.985795 0.000001 -0.000003 -20.030394 377.545673 186.409905 27.209713 -0.000003 -0.000003 -17.032696 5.945823 59.522811 -158.307188
13.346698 -20.024502 14.604193 2712.647332 2.340966 -16.952374 -0.698599 0.806101 5.350900 -10.406877 -8.648535 12.993127 0.000001 0.000001 4.409104 7.788507 -3.241713 0.101144 0.000001 0.000001 10.248302 -16.884482 26.209014 13.741196 -0.000001 -0.000002 2.173886 6.685879 5.000772 -2.325247 2.100600 -0.520899 6.016099 3.344734 -3.558091 -1.503868 5.536694 0.000001 0.000000 323.631821 -14.700118 254.426732 0.000002 0.000003 -12.362103 67.820425 -162.685038 53.416860 -0.000001 -0.000001 -10.273201 2803.043410 192.145707 -154.127371 -2.899500 -1.655898 6.981702 -7.602369 -8.054127 3.637967 -4.387497 -0.000002 -0.000001 -139.299249 -511.845251 644.635166 0.000002 -0.000003 -10.858099 64.341126 -134.027900 25.857530 -0.000003 -0.000002 -12.079609 358.609711 -19.665511 -47.974637 2.190804 0.073901 -2.522499 -376.945873 -177.493968 -64.287475 -0.000005 -0.000004 -20.305012 -892.013526 1.686452 134.774795 0.000001 0.000004 -16.771704 1523.386924 24.912217 60.693170 -2.029503 0.054299 -2.705200 -507.475843 -12.966447 -95.081458 0.000000 -0.000003 -20.030396 377.588075 186.396641 27.206986 -0.000003 -0.000001 -17.032698 6.156217 59.507620 -158.280208
13.345300 -20.025503 14.596298 2712.660445 2.455576 -16.942586 -0.698602 0.806097 5.350900 -10.393391 -8.750108 12.965177 -0.000000 -0.000001 4.409106 7.719923 -3.320269 0.091889 0.000000 -0.000002 10.248294 -16.965348 25.811399 13.713376 -0.000002 -0.000001 2.173888 6.865707 4.924099 -2.490916 2.100600 -0.520899 6.016097 3.487596 -3.522694 -1.762496 5.536691 0.000000 0.000000 324.158101 -15.309589 254.602241 0.000001 0.000009 -12.362105 67.825199 -162.520991 53.416481 -0.000001 0.000003 -10.273205 2803.410819 192.261547 -153.990535 -2.899502 -1.655899 6.981697 -7.529692 -7.996189 3.862258 -4.387499 -0.000006 -0.000005 -140.245504 -511.096116 644.404688 -0.000002 -0.000007 -10.858094 64.557070 -134.185855 25.912271 0.000004 0.000000 -12.079601 358.016851 -20.077585 -48.541523 2.190799 0.073898 -2.522498 -376.952676 -177.576162 -64.212398 -0.000006 -0.000002 -20.305008 -891.978992 1.644500 134.778962 -0.000000 0.000007 -16.771704 1523.448231 24.939452 60.716461 -2.029503 0.054297 -2.705199 -507.452019 -12.901502 -95.160408 -0.000000 -0.000003 -20.030397 377.603484 186.377202 27.197320 -0.000003 -0.000002 -17.032698 6.298182 59.503570 -158.283282
13.344098 -20.025400 14.589298 2712.673997 2.581575 -16.912950 -0.698599 0.806099 5.350900 -10.384299 -8.846451 12.915083 0.000001 -0.000001 4.409097 7.615815 -3.267145 0.097260 0.000002 0.000004 10.248305 -17.081970 25.306577 13.663220 -0.000001 0.000003 2.173894 6.964436 4.872286 -2.454832 2.100602 -0.520895 6.016101 3.851542 -3.904147 -2.112217 5.536692 0.000004 0.000005 324.526111 -15.665718 255.062486 -0.000004 0.000004 -12.362108 67.806758 -162.226555 53.422943 0.000001 -0.000003 -10.273201 2803.672224 192.593713 -153.927616 -2.899500 -1.655896 6.981701 -8.250500 -8.043390 4.294645 -4.387496 -0.000004 -0.000000 -140.465928 -509.941923 643.976681 0.000003 -0.000005 -10.858094 64.934021 -134.351160 25.964688 0.000003 0.000000 -12.079601 357.342821 -20.400208 -48.758692 2.190800 0.073898 -2.522501 -376.945381 -177.656198 -64.112855 -0.000002 -0.000004 -20.305014 -891.932438 1.607753 134.786147 0.000000 0.000007 -16.771704 1523.506807 24.969213 60.726515 -2.029503 0.054296 -2.705199 -507.426501 -12.811966 -95.227324 0.000001 -0.000006 -20.030397 377.612472 186.364594 27.188463 -0.000003 -0.000003 -17.032696 6.394549 59.499868 -158.302256
13.341901 -20.023298 14.582903 2712.696509 2.692789 -16.876667 -0.698600 0.806102 5.350904 -10.379027 -8.958347 12.842696 0.000001 -0.000001 4.409102 7.515074 -3.214632 0.100879 0.000003 -0.000003 10.248301 -17.283293 24.875073 13.714956 0.000001 0.000002 2.173892 7.127481 4.810751 -2.605323 2.100602 -0.520898 6.016101 4.081839 -4.200755 -2.277144 5.536691 0.000000 0.000004 325.049959 -15.805874 255.396892 -0.000005 0.000004 -12.362103 67.687776 -161.681916 53.362595 -0.000001 0.000005 -10.273196 2803.569935 192.921398 -153.879258 -2.899499 -1.655900 6.981698 -8.271906 -8.353385 4.422011 -4.387497 -0.000004 -0.000006 -141.377252 -509.599321 643.569165 0.000002 -0.000001 -10.858088 17.965199 -130.706311 -9.422747 -0.000003 -0.000002 -12.079597 325.581375 -19.432870 -48.740319 2.190806 0.073903 -2.522495 -376.939453 -177.714105 -64.011023 -0.000002 -0.000006 -20.305017 -891.879654 1.579777 134.796092 0.000000 0.000004 -16.771706 1523.552160 24.995574 60.733994 -2.029503 0.054303 -2.705198 -507.423660 -12.686742 -95.283188 -0.000000 -0.000001 -20.030397 377.629521 186.380303 27.178643 -0.000002 -0.000001 -17.032698 6.401768 59.495073 -158.326094
